<?xml version="1.0" encoding="UTF-8" standalone="no"?>
<svg
   viewBox="0 0 32 32"
   version="1.1"
   width="32"
   height="32"
   xmlns="http://www.w3.org/2000/svg"
   xmlns:svg="http://www.w3.org/2000/svg">
   <path
     d="M 24.463216,29.157638 H 4.4632158 v -18 H 24.463216 v 6 h 2 v -10 c 0,-1.09375 -0.90625,-2 -2,-2 h -6 c 0,-2.21875 -1.78125,-4 -4,-4 -2.21875,0 -4,1.78125 -4,4 H 4.4632158 c -1.0937501,0 -2.0000001,0.90625 -2.0000001,2 v 22 c 0,1.09375 0.90625,2 2.0000001,2 H 24.463216 c 1.09375,0 2,-0.90625 2,-2 v -4 h -2 z m -15.9999999,-22 h 1.9999999 c 0,0 2,-0.90625 2,-2 0,-1.09375 0.90625,-2 2,-2 1.09375,0 2,0.90625 2,2 0,1.09375 1,2 2,2 h 2 c 0,0 2,0.90625 2,1.9999998 H 6.4632161 c 0,-1.2187498 0.875,-1.9999998 2,-1.9999998 z m -2,16 h 3.9999999 v -2 H 6.4632161 Z m 13.9999999,-4 v -4 l -8,6 8,6 v -4 h 10 v -4 z m -13.9999999,8 h 5.9999999 v -2 H 6.4632161 Z m 9.9999999,-14 H 6.4632161 v 2 h 9.9999999 z m -6,4 H 6.4632161 v 2 h 3.9999999 z" style="stroke-width:0.03125" />
</svg>