<?xml version="1.0" encoding="UTF-8" standalone="no"?>
<svg
   viewBox="0 0 32 32"
   version="1.1"
   width="32"
   height="32"
   xmlns="http://www.w3.org/2000/svg"
   xmlns:svg="http://www.w3.org/2000/svg">
<path
   d="m 30.909382,16.159614 c 0,2.877461 -6.158992,9.045636 -14.96586,9.045636 -8.5772834,0 -15.01177652,-6.076341 -15.01177652,-9.045636 0,-2.969295 6.43449312,-9.0456362 14.96585952,-9.0456362 8.898702,0 15.011777,6.0304242 15.011777,9.0456362 z M 15.943522,8.7608652 c -3.970284,0 -7.2089587,3.2876528 -7.2089587,7.4018098 0,4.111096 3.2386747,7.398749 7.2089587,7.398749 3.970284,0 7.208959,-3.287653 7.208959,-7.398749 0,-4.06824 -3.238675,-7.4018098 -7.208959,-7.4018098 z m 0,2.6937938 c -2.556043,0 -4.606999,2.099934 -4.606999,4.704955 0,2.605021 2.054018,4.704955 4.606999,4.704955 2.556043,0 4.606999,-2.102995 4.606999,-4.704955 -0.04286,-2.605021 -2.096873,-4.704955 -4.606999,-4.704955 z"
   id="path4"
   style="stroke-width:0.0306113" />
</svg>