<?xml version="1.0" encoding="UTF-8" standalone="no"?>
<svg
   height="32"
   aria-hidden="true"
   viewBox="0 0 32 32"
   version="1.1"
   width="32"
   data-view-component="true"
   class="octicon octicon-mark-github v-align-middle"
   id="svg4"
   xmlns="http://www.w3.org/2000/svg"
   xmlns:svg="http://www.w3.org/2000/svg">
  <defs
     id="defs8" />
  <path
     fill-rule="evenodd"
     d="m 16.271186,2.30026 c -7.9559996,0 -14.3999996,6.4439999 -14.3999996,14.4 0,6.372 4.122,11.754 9.8459996,13.662 0.72,0.126 0.99,-0.306 0.99,-0.684 0,-0.342 -0.018,-1.476 -0.018,-2.682 -3.6179996,0.666 -4.5539996,-0.882 -4.8419996,-1.692 -0.162,-0.414 -0.864,-1.692 -1.476,-2.034 -0.504,-0.27 -1.224,-0.936 -0.018,-0.954 1.134,-0.018 1.944,1.044 2.214,1.476 1.296,2.178 3.3659996,1.566 4.1939996,1.188 0.126,-0.936 0.504,-1.566 0.918,-1.926 -3.204,-0.36 -6.5519996,-1.602 -6.5519996,-7.11 0,-1.566 0.558,-2.862 1.476,-3.87 -0.144,-0.36 -0.648,-1.836 0.144,-3.8160001 0,0 1.206,-0.378 3.9599996,1.476 1.152,-0.324 2.376,-0.486 3.6,-0.486 1.224,0 2.448,0.162 3.6,0.486 2.754,-1.872 3.96,-1.476 3.96,-1.476 0.792,1.9800001 0.288,3.4560001 0.144,3.8160001 0.918,1.008 1.476,2.286 1.476,3.87 0,5.526 -3.366,6.75 -6.57,7.11 0.522,0.45 0.972,1.314 0.972,2.664 0,1.926 -0.018,3.474 -0.018,3.96 0,0.378 0.27,0.828 0.99,0.684 a 14.4234,14.4234 0 0 0 9.81,-13.662 c 0,-7.9560001 -6.444,-14.4 -14.4,-14.4 z"
     id="path2"
     style="stroke-width:1.8" />
</svg>
