<?xml version="1.0" encoding="UTF-8" standalone="no"?>
<svg 
	_viewBox_="0 0 118.04 122.88"
    viewBox="0 0 32 32"
    width="32"
    height="32"
    xmlns="http://www.w3.org/2000/svg"
	>

  <path
     d="m 5.8054522,15.697589 a 1.9292538,1.9292538 0 0 1 -3.858507,0 A 14.157457,14.157457 0 0 1 25.253955,4.8995219 V 3.397499 a 1.929254,1.929254 0 1 1 3.858508,0 v 6.082893 a 1.9196552,1.9196552 0 0 1 -1.919479,1.919793 L 21.340417,11.94483 A 1.9214437,1.9214437 0 1 1 20.99474,8.1175214 L 22.914218,7.9412202 A 10.318147,10.318147 0 0 0 5.8052946,15.696613 Z m 5.4638248,4.703147 a 1.9274331,1.9274331 0 0 1 0.345677,3.839336 L 9.1961645,24.4573 a 10.306149,10.306149 0 0 0 17.2265115,-7.657042 1.9292538,1.9292538 0 0 1 3.858506,0 14.157457,14.157457 0 0 1 -22.9830567,11.071617 v 1.003027 a 1.9292539,1.9292539 0 0 1 -3.8585079,0 v -6.008532 0 a 1.9196552,1.9196552 0 0 1 1.749159,-1.919793 l 6.0732916,-0.551885 z"
     style="stroke-width:0.239956" />
</svg>