<?xml version="1.0" encoding="utf-8"?>
<!-- Svg Vector Icons : http://www.onlinewebfonts.com/icon -->
<!DOCTYPE svg PUBLIC "-//W3C//DTD SVG 1.1//EN" "http://www.w3.org/Graphics/SVG/1.1/DTD/svg11.dtd">
<svg version="1.1" xmlns="http://www.w3.org/2000/svg" xmlns:xlink="http://www.w3.org/1999/xlink" x="0px" y="0px" viewBox="0 0 1000 1000" enable-background="new 0 0 1000 1000" xml:space="preserve">
<metadata> Svg Vector Icons : http://www.onlinewebfonts.com/icon </metadata>
<g><g transform="translate(0.000000,512.000000) scale(0.100000,-0.100000)"><path d="M359.6,4991.2c-97.6-34.5-210.5-155-237.3-250.7c-30.6-107.2-28.7-9134.7,0-9241.9c28.7-101.4,156.9-229.7,260.3-256.5c55.5-15.3,872.7-19.1,2888-17.2l2811.4,5.7l1770.3,543.5c974.1,298.6,1793.3,555,1820,568.4c76.6,38.3,185.6,170.3,206.7,250.7c15.3,49.7,21,1096.6,21,3347.3v3272.7l-49.8,99.5c-26.8,55.5-78.5,122.5-112.9,149.3c-34.4,24.9-867,384.7-1848.8,798.1l-1787.5,750.2l-2832.5,3.8C861,5018,424.6,5014.2,359.6,4991.2z M5967.1,120.5v-4507.1l-2715.7-5.7c-1990.4-1.9-2721.5,1.9-2740.6,17.2c-36.4,30.6-40.2,8952.9-3.8,8989.3c17.2,17.2,643,21.1,2742.5,19.1l2717.6-5.7V120.5z M8062.7,3758.7c782.8-327.3,1431.5-606.7,1439.2-620.1c7.6-11.5,15.3-1458.3,15.3-3211.4c0-2520.5-5.7-3194.2-23-3217.1c-15.3-19.1-635.4-216.3-1546.4-495.7c-836.3-254.6-1533-467-1544.5-472.7c-19.1-5.7-24.9,872.7-24.9,4355.9V4463l130.1-55.5C6579.5,4378.8,7278,4086,8062.7,3758.7z"/><path d="M1211.2,3835.3c-147.4-30.6-256.4-126.3-304.3-267.9c-30.6-93.8-26.8-1136.8,5.7-1224.9c19.1-53.6,19.1-80.4-1.9-141.6c-21-59.3-24.9-202.9-21-645l5.7-568.4l57.4-91.9c36.4-57.4,86.1-107.2,134-132.1c76.6-40.2,91.9-40.2,2019.1-45.9c1343.5-3.8,1963.6,0,2013.3,15.3c91.9,26.8,179.9,101.4,227.8,195.2c36.3,70.8,38.3,103.3,28.7,690.9c-5.8,338.8-9.6,637.3-7.7,664.1c0,26.8,3.8,321.5,7.7,654.5c7.6,579.9,7.6,612.4-28.7,683.2c-53.6,103.3-162.7,187.6-273.7,212.4C4966.2,3854.4,1324.1,3856.3,1211.2,3835.3z M5000.6,2962.6v-488l-1860.2,3.8l-1862.2,5.7l-5.7,459.3c-1.9,252.6,0,468.9,3.8,482.3c7.6,19.1,384.7,24.9,1867.9,24.9h1856.4V2962.6z M5000.6,1584.6v-488l-1860.2,3.8l-1862.2,5.7l-5.7,484.2l-3.8,482.3h1866h1866V1584.6z"/><path d="M2933.7-878.5c-86.1-23-183.7-99.5-231.6-174.2c-160.8-266,68.9-614.4,384.7-583.7c327.3,32.5,459.3,449.7,210.5,673.7C3190.1-865.1,3073.4-838.3,2933.7-878.5z"/><path d="M2885.8-2269.8c-134-59.3-239.2-216.3-239.2-356c0-195.2,197.1-392.3,390.4-392.3c141.6,0,296.6,105.3,357.9,239.2c51.7,111,45.9,216.3-17.2,336.8C3283.9-2262.2,3067.6-2187.6,2885.8-2269.8z"/></g></g>
</svg>