<?xml version="1.0" encoding="UTF-8" standalone="no"?>
<svg
   viewBox="0 0 32 32"
   version="1.1"
   width="32"
   height="32"
   xmlns="http://www.w3.org/2000/svg"
   xmlns:svg="http://www.w3.org/2000/svg">
  <path
     d="M 19.75,15.67 C 24.170791,12.12278 21.661705,4.9907748 15.995,4.9907748 10.328295,4.9907748 7.819209,12.12278 12.24,15.67 7.895905,17.250063 5.0031215,21.377474 5,26 v 1 H 7.4798151 C 7.4798151,27 7.1093636,17.747687 16,17.747687 25.075042,17.747687 24.9037,27 24.9037,27 H 27 V 26 C 26.9953,21.374906 24.098036,17.246735 19.75,15.67 Z M 12,11 C 12,7.4361328 16.308554,5.6519873 18.828283,8.1717166 21.348013,10.691446 19.563867,15 16,15 13.790861,15 12,13.209139 12,11 Z"
     style="mix-blend-mode:normal;fill:#ffffff;fill-opacity:1;fill-rule:evenodd" />
</svg>